{"title":"Millennium Actress","uid":6602342,"size":2306979621,"categoryP":"video","categoryS":"movies","magnet":"?xt=urn:btih:436be87b11a906feee4da98e368b7baa068d93e0&amp;dn=Millennium+Actress&amp;tr=udp%3A%2F%2Ftracker.openbittorrent.com%3A80&amp;tr=udp%3A%2F%2Fopen.demonii.com%3A1337&amp;tr=udp%3A%2F%2Ftracker.coppersurfer.tk%3A6969&amp;tr=udp%3A%2F%2Fexodus.desync.com%3A6969","seeders":2,"leechers":0,"uploader":"nekochan1","files":3,"time":1313257708,"description":"Uma obra prima de Satoshi Kon, legenda soft su em portugues \n\nVideo: MPEG4 Video (H264) 1280x688 23.98fps [Video]\nAudio: Dolby AC3 48000Hz 6ch [Audio]\nSubtitle: Advanced SubStation Alpha [Subtitle]\n\nGeneral\nComplete name                    : K:\\Filmes\\Millennium Actress\\Millennium.Actress.2001.HDTV.RE.720p.DD5.1.x264-MDC.mkv\nFormat                           : Matroska\nFile size                        : 2.15 GiB\nDuration                         : 1h 26mn\nOverall bit rate                 : 3 550 Kbps\nEncoded date                     : UTC 2008-01-03 15:16:12\nWriting application              : mkvmerge v2.1.0 ('Another Place To Fall') built on Aug 19 2007 13:40:07\nWriting library                  : libebml v0.7.7 + libmatroska v0.8.1\nCover                            : Yes\n\nVideo\nID                               : 1\nFormat                           : AVC\nFormat/Info                      : Advanced Video Codec\nFormat profile                   : &lt;a class=&quot;__cf_email__&quot; href=&quot;/cdn-cgi/l/email-protection&quot; data-cfemail=&quot;7d35141a153d3148534c&quot;&gt;[email&amp;#160;protected]&lt;/a&gt;&lt;script cf-hash='f9e31' type=&quot;text/javascript&quot;&gt;\n/* &lt;![CDATA[ */!function(){try{var t=&quot;currentScript&quot;in document?document.currentScript:function(){for(var t=document.getElementsByTagName(&quot;script&quot;),e=t.length;e--;)if(t[e].getAttribute(&quot;cf-hash&quot;))return t[e]}();if(t&amp;&amp;t.previousSibling){var e,r,n,i,c=t.previousSibling,a=c.getAttribute(&quot;data-cfemail&quot;);if(a){for(e=&quot;&quot;,r=parseInt(a.substr(0,2),16),n=2;a.length-n;n+=2)i=parseInt(a.substr(n,2),16)^r,e+=String.fromCharCode(i);e=document.createTextNode(e),c.parentNode.replaceChild(e,c)}}}catch(u){}}();/* ]]&gt; */&lt;/script&gt;\nFormat settings, CABAC           : Yes\nFormat settings, ReFrames        : 8 frames\nCodec ID                         : V_MPEG4/ISO/AVC\nDuration                         : 1h 26mn\nBit rate                         : 3 105 Kbps\nWidth                            : 1 280 pixels\nHeight                           : 688 pixels\nDisplay aspect ratio             : 1.860\nFrame rate                       : 23.976 fps\nColor space                      : YUV\nChroma subsampling               : 4:2:0\nBit depth                        : 8 bits\nScan type                        : Progressive\nBits/(Pixel*Frame)               : 0.147\nStream size                      : 1.83 GiB (85%)\nWriting library                  : x264 core 56 svn-667C\nEncoding settings                \nLanguage                         : Japanese\n\nAudio\nID                               : 2\nFormat                           : AC-3\nFormat/Info                      : Audio Coding 3\nMode extension                   : CM (complete main)\nCodec ID                         : A_AC3\nDuration                         : 1h 26mn\nBit rate mode                    : Constant\nBit rate                         : 448 Kbps\nChannel(s)                       : 6 channels\nChannel positions                : Front: L C R, Side: L R, LFE\nSampling rate                    : 48.0 KHz\nBit depth                        : 16 bits\nStream size                      : 278 MiB (13%)\nLanguage                         : Japanese\n\nText\nID                               : 3\nFormat                           : ASS\nCodec ID                         : S_TEXT/ASS\nCodec ID/Info                    : Advanced Sub Station Alpha\nLanguage                         : English\n\n","torrent":{"xt":"urn:btih:436be87b11a906feee4da98e368b7baa068d93e0","amp;dn":"Millennium+Actress","amp;tr":["udp%3A%2F%2Ftracker.openbittorrent.com%3A80","udp%3A%2F%2Fopen.demonii.com%3A1337","udp%3A%2F%2Ftracker.coppersurfer.tk%3A6969","udp%3A%2F%2Fexodus.desync.com%3A6969"],"infoHash":"436be87b11a906feee4da98e368b7baa068d93e0","infoHashBuffer":{"type":"Buffer","data":[67,107,232,123,17,169,6,254,238,77,169,142,54,139,123,170,6,141,147,224]},"announce":[],"urlList":[]}}